<?xml version='1.0' encoding='utf-8'?>
<svg xmlns="http://www.w3.org/2000/svg" width="1200" height="630" viewBox="0 0 1200 630" role="img" aria-labelledby="title"><title id="title">ニュース共通表紙テンプレート</title><defs><linearGradient id="bottle" x2="1" y2=".3"><stop stop-color="#1674d3" /><stop offset=".52" stop-color="#6cd9ed" /><stop offset="1" stop-color="#207bc6" /></linearGradient><linearGradient id="wash" x1="0" y1="0" x2="1" y2="1"><stop stop-color="#e8f8ff" /><stop offset=".62" stop-color="#e6eeff" /><stop offset="1" stop-color="#d2f5ee" /></linearGradient><linearGradient id="brand" x2="1" y2=".4"><stop stop-color="#0560ed" /><stop offset=".56" stop-color="#208cdf" /><stop offset="1" stop-color="#13babd" /></linearGradient></defs><rect x="0" y="0" width="1200" height="630" rx="0" fill="#eef7ff" stroke="none" /><rect x="740" y="0" width="460" height="630" rx="0" fill="url(#wash)" stroke="none" /><g fill="#152b42" aria-label="MYSTENA"><path d="M66.548828125 62.23046875H77.025390625L81.068359375 77.91015625L85.09375 62.23046875H95.53515625V88.0H89.03125V68.34765625L83.986328125 88.0H78.09765625L73.0703125 68.34765625V88.0H66.548828125ZM95.313671875 62.23046875H104.15546875L109.35859375 70.931640625L114.56171875 62.23046875H123.35078125L113.33125 77.20703125V88.0H105.35078125V77.20703125ZM121.828515625 79.474609375 129.4046875 79.0Q129.65078125 80.845703125 130.406640625 81.8125Q131.637109375 83.376953125 133.922265625 83.376953125Q135.62734375 83.376953125 136.5501953125 82.5771484375Q137.473046875 81.77734375 137.473046875 80.72265625Q137.473046875 79.720703125 136.594140625 78.9296875Q135.715234375 78.138671875 132.516015625 77.435546875Q127.277734375 76.2578125 125.0453125 74.306640625Q122.7953125 72.35546875 122.7953125 69.33203125Q122.7953125 67.345703125 123.9466796875 65.5791015625Q125.098046875 63.8125 127.4095703125 62.8017578125Q129.72109375 61.791015625 133.746484375 61.791015625Q138.6859375 61.791015625 141.2787109375 63.6279296875Q143.871484375 65.46484375 144.363671875 69.47265625L136.8578125 69.912109375Q136.558984375 68.171875 135.6009765625 67.380859375Q134.64296875 66.58984375 132.95546875 66.58984375Q131.566796875 66.58984375 130.863671875 67.1787109375Q130.160546875 67.767578125 130.160546875 68.611328125Q130.160546875 69.2265625 130.740625 69.71875Q131.303125 70.228515625 133.4125 70.66796875Q138.633203125 71.79296875 140.8919921875 72.9443359375Q143.15078125 74.095703125 144.1791015625 75.80078125Q145.207421875 77.505859375 145.207421875 79.615234375Q145.207421875 82.09375 143.836328125 84.185546875Q142.465234375 86.27734375 140.004296875 87.3583984375Q137.543359375 88.439453125 133.79921875 88.439453125Q127.225 88.439453125 124.69375 85.908203125Q122.1625 83.376953125 121.828515625 79.474609375ZM144.7046875 62.23046875H168.909765625V68.59375H160.788671875V88.0H152.82578125V68.59375H144.7046875ZM169.79570312500002 62.23046875H191.13554687500002V67.732421875H177.77617187500002V71.828125H190.16875000000002V77.083984375H177.77617187500002V82.1640625H191.52226562500002V88.0H169.79570312500002ZM193.16406250000003 62.23046875H200.59960937500003L210.30273437500003 76.486328125V62.23046875H217.80859375000003V88.0H210.30273437500003L200.65234375000003 73.849609375V88.0H193.16406250000003ZM236.25507812500004 83.74609375H227.18476562500004L225.93671875000004 88.0H217.79804687500004L227.48359375000004 62.23046875H236.16718750000004L245.85273437500004 88.0H237.52070312500004ZM234.58515625000004 78.173828125 231.73750000000004 68.91015625 228.90742187500004 78.173828125Z" /></g><g transform="translate(268 52) scale(1.125)" fill="none" stroke="#1262eb" stroke-width="2"><path d="M16 1v30M1 16h30M5.4 5.4l21.2 21.2M5.4 26.6 26.6 5.4" /></g><g fill="#1262eb" aria-label="NEWS"><path d="M74.736 297.032Q72.832 297.032 72.832 295.128V190.81599999999997Q72.832 188.91199999999998 74.736 188.91199999999998H91.6Q93.096 188.91199999999998 94.048 190.272L142.328 264.936V190.81599999999997Q142.328 188.91199999999998 144.232 188.91199999999998H159.60000000000002Q161.50400000000002 188.91199999999998 161.50400000000002 190.81599999999997V295.128Q161.50400000000002 297.032 159.60000000000002 297.032H142.736Q141.24 297.032 140.424 295.672L91.872 220.872V295.128Q91.872 297.032 89.968 297.032ZM186.93599999999998 297.032Q185.03199999999998 297.032 185.03199999999998 295.128V190.81599999999997Q185.03199999999998 188.91199999999998 186.93599999999998 188.91199999999998H255.208Q257.11199999999997 188.91199999999998 257.11199999999997 190.81599999999997V205.776Q257.11199999999997 207.68 255.208 207.68H204.88799999999998V232.16H250.312Q252.35199999999998 232.16 252.35199999999998 234.2V248.752Q252.35199999999998 250.656 250.312 250.656H204.88799999999998V278.264H256.976Q258.88 278.264 258.88 280.304V295.128Q258.88 297.032 256.976 297.032ZM307.432 297.032Q305.66400000000004 297.032 305.25600000000003 295.536L267.584 191.088Q267.44800000000004 190.81599999999997 267.44800000000004 190.408Q267.44800000000004 188.91199999999998 269.216 188.91199999999998H287.848Q289.48 188.91199999999998 289.88800000000003 190.54399999999998L313.68800000000005 263.44L337.624 190.54399999999998Q338.03200000000004 188.91199999999998 339.664 188.91199999999998H352.992Q354.624 188.91199999999998 355.03200000000004 190.54399999999998L379.10400000000004 263.576L402.904 190.54399999999998Q403.312 188.91199999999998 404.944 188.91199999999998H423.168Q424.25600000000003 188.91199999999998 424.732 189.524Q425.208 190.136 424.80000000000007 191.088L387.12800000000004 295.536Q386.72 297.032 384.952 297.032H371.35200000000003Q369.72 297.032 369.312 295.4L346.192 224.952L323.072 295.4Q322.66400000000004 297.032 321.03200000000004 297.032ZM472.672 299.072Q457.576 299.072 447.308 291.796Q437.04 284.52 432.688 270.512Q432.552 270.24 432.552 269.696Q432.552 268.608 433.912 268.2L449.28 264.528Q449.552 264.392 449.96 264.392Q451.18399999999997 264.392 451.592 265.752Q454.584 272.824 459.48 276.22400000000005Q464.376 279.624 472.672 279.624Q480.56 279.624 485.38800000000003 276.904Q490.216 274.18399999999997 490.216 268.2Q490.216 262.216 485.524 258.68Q480.832 255.144 472.536 252.152L463.016 248.752Q450.096 244.264 442.68399999999997 236.512Q435.272 228.76 435.272 217.2Q435.272 208.36 440.1 201.49200000000002Q444.928 194.624 453.156 190.748Q461.384 186.87199999999999 471.584 186.87199999999999Q485.184 186.87199999999999 494.84000000000003 193.332Q504.496 199.79199999999997 508.576 213.256Q508.712 213.528 508.712 214.072Q508.712 215.16 507.352 215.56799999999998L491.168 219.648Q490.896 219.784 490.352 219.784Q489.4 219.784 488.72 218.42399999999998Q486.136 211.76 481.852 209.04Q477.568 206.32 471.584 206.32Q464.512 206.32 460.228 209.108Q455.944 211.89600000000002 455.944 216.656Q455.944 221.688 460.29600000000005 225.29199999999997Q464.648 228.896 474.168 232.024L481.784 234.608Q496.472 239.368 503.68 247.12Q510.88800000000003 254.872 510.88800000000003 268.2Q510.88800000000003 277.176 506.06 284.11199999999997Q501.23199999999997 291.048 492.596 295.06Q483.96 299.072 472.672 299.072Z" /></g><g fill="#152b42" aria-label="MYSTENAからのお知らせ"><path d="M70.737 366.369Q70.219 366.369 70.219 365.851V337.472Q70.219 336.954 70.737 336.954H75.325Q75.732 336.954 75.954 337.324L86.12899999999999 354.233L96.156 337.324Q96.378 336.954 96.785 336.954H101.262Q101.78 336.954 101.78 337.472V365.851Q101.78 366.369 101.262 366.369H97.081Q96.563 366.369 96.563 365.851V345.98199999999997L87.94200000000001 360.412Q87.794 360.745 87.35 360.745H84.649Q84.242 360.745 84.02 360.412L75.399 346.16700000000003V365.851Q75.399 366.369 74.881 366.369ZM117.06099999999999 366.369Q116.54299999999999 366.369 116.54299999999999 365.851V355.195L105.887 337.583Q105.776 337.398 105.776 337.324Q105.776 336.954 106.25699999999999 336.954H111.289Q111.73299999999999 336.954 111.881 337.324L119.318 350.311L126.681 337.324Q126.829 336.954 127.273 336.954H132.231Q132.527 336.954 132.6565 337.139Q132.786 337.324 132.601 337.583L121.945 355.158V365.851Q121.945 366.369 121.42699999999999 366.369ZM145.662 366.924Q141.555 366.924 138.7615 364.94449999999995Q135.96800000000002 362.965 134.784 359.154Q134.747 359.08 134.747 358.932Q134.747 358.636 135.117 358.525L139.298 357.526Q139.372 357.489 139.483 357.489Q139.816 357.489 139.927 357.859Q140.741 359.783 142.073 360.70799999999997Q143.405 361.633 145.662 361.633Q147.808 361.633 149.1215 360.89300000000003Q150.435 360.153 150.435 358.525Q150.435 356.897 149.1585 355.935Q147.882 354.973 145.625 354.159L143.035 353.234Q139.52 352.013 137.5035 349.904Q135.487 347.795 135.487 344.65Q135.487 342.245 136.8005 340.37649999999996Q138.114 338.508 140.35250000000002 337.45349999999996Q142.591 336.399 145.366 336.399Q149.066 336.399 151.69299999999998 338.1565Q154.32 339.914 155.43 343.577Q155.467 343.651 155.467 343.799Q155.467 344.095 155.097 344.206L150.69400000000002 345.31600000000003Q150.62 345.353 150.472 345.353Q150.213 345.353 150.028 344.983Q149.325 343.17 148.15949999999998 342.43Q146.994 341.69 145.366 341.69Q143.442 341.69 142.2765 342.44849999999997Q141.111 343.207 141.111 344.502Q141.111 345.871 142.29500000000002 346.8515Q143.479 347.832 146.06900000000002 348.683L148.141 349.386Q152.137 350.681 154.098 352.78999999999996Q156.059 354.899 156.059 358.525Q156.059 360.967 154.7455 362.854Q153.43200000000002 364.741 151.0825 365.8325Q148.733 366.924 145.662 366.924ZM168.713 366.369Q168.195 366.369 168.195 365.851V342.06H159.093Q158.612 342.06 158.612 341.54200000000003V337.472Q158.612 336.954 159.093 336.954H182.662Q183.18 336.954 183.18 337.472V341.54200000000003Q183.18 342.06 182.662 342.06H173.634V365.851Q173.634 366.369 173.079 366.369ZM188.138 366.369Q187.62 366.369 187.62 365.851V337.472Q187.62 336.954 188.138 336.954H206.71200000000002Q207.23000000000002 336.954 207.23000000000002 337.472V341.54200000000003Q207.23000000000002 342.06 206.71200000000002 342.06H193.02200000000002V348.72H205.38Q205.935 348.72 205.935 349.275V353.234Q205.935 353.752 205.38 353.752H193.02200000000002V361.263H207.193Q207.711 361.263 207.711 361.818V365.851Q207.711 366.369 207.193 366.369ZM212.965 366.369Q212.447 366.369 212.447 365.851V337.472Q212.447 336.954 212.965 336.954H217.553Q217.96 336.954 218.219 337.324L231.354 357.637V337.472Q231.354 336.954 231.872 336.954H236.053Q236.571 336.954 236.571 337.472V365.851Q236.571 366.369 236.053 366.369H231.465Q231.058 366.369 230.836 365.999L217.627 345.649V365.851Q217.627 366.369 217.109 366.369ZM241.048 366.369Q240.78900000000002 366.369 240.64100000000002 366.2025Q240.49300000000002 366.036 240.64100000000002 365.777L252.37 337.361Q252.518 336.954 252.96200000000002 336.954H256.699Q257.14300000000003 336.954 257.291 337.361L269.057 365.777Q269.094 365.851 269.094 365.999Q269.094 366.369 268.65000000000003 366.369H263.581Q263.137 366.369 262.98900000000003 365.962L260.91700000000003 360.486H248.70700000000002L246.598 365.962Q246.45000000000002 366.369 246.00600000000003 366.369ZM254.775 344.317 250.55700000000002 355.454H258.993ZM282.599 366.036Q282.15500000000003 365.962 282.04400000000004 365.555L281.00800000000004 361.337V361.152Q281.00800000000004 360.671 281.563 360.856Q283.635 361.374 285.07800000000003 361.374Q286.706 361.374 287.7235 360.70799999999997Q288.741 360.042 289.259 358.562Q289.666 357.452 289.81399999999996 355.8055Q289.962 354.159 289.962 352.568L289.88800000000003 350.237Q289.74 348.424 289.2035 347.8135Q288.66700000000003 347.203 287.224 347.166H283.968Q282.71000000000004 351.865 280.9895 356.6935Q279.269 361.522 277.04900000000004 366.036Q276.827 366.443 276.38300000000004 366.332L272.461 365.111Q271.906 364.963 272.165 364.408Q274.49600000000004 359.746 276.124 355.5095Q277.752 351.273 278.825 347.351Q277.382 347.425 275.828 347.536Q274.274 347.647 272.757 347.795H272.683Q272.202 347.795 272.202 347.314L271.98 343.355Q271.98 342.874 272.461 342.874Q274.2 342.8 276.14250000000004 342.7445Q278.08500000000004 342.689 280.046 342.652Q280.45300000000003 340.839 280.76750000000004 339.0815Q281.082 337.324 281.341 335.622Q281.452 335.141 281.933 335.178L285.855 335.548Q286.41 335.585 286.336 336.029Q286.077 337.583 285.781 339.211Q285.485 340.839 285.07800000000003 342.578L288.593 342.615Q290.887 342.726 292.1635 343.53999999999996Q293.44 344.354 294.0135 345.7045Q294.587 347.055 294.735 348.73850000000004Q294.88300000000004 350.422 294.88300000000004 352.198Q294.88300000000004 354.159 294.75350000000003 356.157Q294.624 358.155 294.14300000000003 359.9865Q293.66200000000003 361.818 292.6815 363.24249999999995Q291.701 364.667 290.03600000000006 365.4995Q288.37100000000004 366.332 285.81800000000004 366.332Q285.07800000000003 366.332 284.264 366.25800000000004Q283.45 366.184 282.599 366.036ZM294.51300000000003 341.838Q294.365 341.616 294.365 341.505Q294.365 341.246 294.69800000000004 341.135L298.25 339.877Q298.324 339.84 298.47200000000004 339.84Q298.731 339.84 298.95300000000003 340.099Q303.467 346.315 304.50300000000004 352.642Q304.54 352.679 304.54 352.753Q304.54 353.086 304.17 353.271L300.322 354.714Q300.17400000000004 354.788 300.1 354.788Q299.767 354.788 299.69300000000004 354.344Q299.212 351.014 297.954 347.869Q296.696 344.724 294.51300000000003 341.838ZM317.749 336.177Q317.786 335.733 318.341 335.733Q321.93 335.733 325.5375 336.06600000000003Q329.14500000000004 336.399 332.105 337.361Q332.586 337.472 332.401 337.99L331.14300000000003 341.875Q330.958 342.356 330.47700000000003 342.171Q327.332 341.098 324.1685 340.765Q321.005 340.432 317.45300000000003 340.395Q316.898 340.395 317.009 339.84ZM316.269 365.999Q315.862 365.962 315.75100000000003 365.481L314.90000000000003 361.374Q314.90000000000003 360.93 315.45500000000004 361.041Q317.416 361.411 319.5435 361.6515Q321.671 361.892 323.743 361.892Q326.333 361.892 328.627 361.3925Q330.921 360.893 332.401 359.635Q333.289 358.895 333.7145 358.044Q334.14 357.193 334.14 356.379Q334.14 354.936 333.1965 354.12199999999996Q332.25300000000004 353.308 330.92100000000005 352.975Q329.589 352.642 328.40500000000003 352.642Q326.03700000000003 352.642 323.4285 353.6595Q320.82 354.677 318.37800000000004 356.712Q318.119 356.971 317.749 356.971L313.975 356.786Q313.42 356.786 313.494 356.26800000000003Q313.531 354.307 313.679 351.976Q313.827 349.645 314.049 347.31399999999996Q314.271 344.983 314.53000000000003 343.133Q314.567 342.652 315.08500000000004 342.652L319.081 342.763Q319.636 342.763 319.52500000000003 343.318Q319.15500000000003 345.353 318.91450000000003 347.55449999999996Q318.67400000000004 349.756 318.6 351.569Q321.301 349.756 324.02049999999997 348.99749999999995Q326.74 348.239 329.14500000000004 348.239Q330.551 348.239 331.7905 348.4425Q333.03000000000003 348.646 334.06600000000003 349.053Q336.80400000000003 350.089 338.136 352.05Q339.468 354.011 339.468 356.231Q339.468 358.081 338.5615 359.9125Q337.65500000000003 361.744 335.879 363.224Q333.622 365.111 330.44000000000005 365.88800000000003Q327.25800000000004 366.665 323.743 366.665Q321.89300000000003 366.665 320.00600000000003 366.48Q318.119 366.295 316.269 365.999ZM363.814 365.999Q363.444 365.999 363.259 365.592L361.742 361.744Q361.70500000000004 361.67 361.70500000000004 361.522Q361.70500000000004 361.152 362.18600000000004 361.152Q366.25600000000003 360.967 368.75350000000003 359.561Q371.25100000000003 358.155 372.398 356.0275Q373.545 353.9 373.545 351.569Q373.545 349.164 372.54600000000005 347.166Q371.547 345.168 369.771 343.799Q367.995 342.43 365.627 341.912Q365.627 344.021 365.1645 346.53700000000003Q364.702 349.053 363.9065 351.68Q363.111 354.307 362.001 356.7305Q360.891 359.154 359.596 361.115Q358.708 362.41 357.37600000000003 363.076Q356.04400000000004 363.742 354.564 363.742Q352.529 363.742 350.975 362.78Q349.421 361.818 348.3665 360.2455Q347.312 358.673 346.7755 356.823Q346.23900000000003 354.973 346.23900000000003 353.16Q346.23900000000003 349.904 347.793 346.574Q349.34700000000004 343.244 352.677 340.617Q354.86 338.878 357.5425 338.0455Q360.225 337.213 362.963 337.213Q366.219 337.213 369.04949999999997 338.26750000000004Q371.88 339.322 374.026 341.2645Q376.172 343.207 377.39300000000003 345.908Q378.61400000000003 348.609 378.61400000000003 351.902Q378.61400000000003 354.714 377.5595 357.17449999999997Q376.505 359.635 374.5625 361.55899999999997Q372.62 363.483 369.9005 364.6485Q367.18100000000004 365.814 363.88800000000003 365.999ZM350.938 352.975Q350.938 354.344 351.382 355.602Q351.826 356.86 352.75100000000003 357.859Q353.49100000000004 358.599 354.34200000000004 358.599Q355.30400000000003 358.599 356.007 357.6Q356.969 356.157 357.82 354.1405Q358.671 352.124 359.3185 349.8855Q359.966 347.647 360.3175 345.538Q360.66900000000004 343.429 360.632 341.838Q358.708 342.208 356.95050000000003 343.2255Q355.19300000000004 344.243 353.84250000000003 345.76Q352.492 347.277 351.71500000000003 349.1085Q350.938 350.94 350.938 352.975ZM400.259 366.036Q399.889 365.925 399.815 365.481L399.408 361.596V361.522Q399.408 360.967 400.0 361.152Q400.88800000000003 361.485 401.7945 361.63300000000004Q402.701 361.781 403.515 361.781Q404.884 361.781 406.031 361.39250000000004Q407.178 361.004 407.88100000000003 360.264Q409.25 358.821 409.25 357.008Q409.25 355.787 408.5285 354.6955Q407.807 353.604 406.3085 352.90099999999995Q404.81 352.198 402.442 352.198Q400.296 352.198 397.521 352.901V361.522Q397.521 364.223 396.078 365.4255Q394.635 366.628 392.563 366.628Q391.12 366.628 389.62149999999997 366.11Q388.123 365.592 386.828 364.6485Q385.533 363.705 384.75600000000003 362.39149999999995Q383.97900000000004 361.078 383.97900000000004 359.524Q383.97900000000004 357.822 384.83000000000004 356.305Q385.68100000000004 354.788 387.03150000000005 353.5115Q388.382 352.235 389.93600000000004 351.2545Q391.49 350.274 392.896 349.719V344.613L385.348 344.65Q384.83000000000004 344.65 384.83000000000004 344.132V340.654Q384.83000000000004 340.136 385.348 340.136L392.85900000000004 340.099V335.511Q392.785 334.993 393.34000000000003 334.993H397.188Q397.706 334.993 397.706 335.511L397.632 340.062L405.254 340.025Q405.772 340.025 405.772 340.543V344.058Q405.772 344.576 405.254 344.576L397.595 344.613L397.558 348.498Q398.927 348.239 400.148 348.1095Q401.369 347.98 402.516 347.98Q406.438 347.98 409.028 349.2935Q411.618 350.607 412.913 352.679Q414.208 354.751 414.208 357.119Q414.208 358.673 413.616 360.227Q413.024 361.781 411.84000000000003 363.15Q410.32300000000004 364.926 408.21400000000006 365.74Q406.105 366.554 403.885 366.554Q402.035 366.554 400.259 366.036ZM406.623 340.543Q406.401 340.358 406.401 340.173Q406.401 339.951 406.66 339.803L409.361 337.805Q409.509 337.657 409.694 337.657Q409.916 337.657 410.064 337.805Q411.988 339.285 413.8195 341.30150000000003Q415.651 343.318 416.687 345.279Q416.761 345.501 416.761 345.575Q416.761 345.797 416.46500000000003 345.98199999999997L413.283 348.091Q413.135 348.202 412.95000000000005 348.202Q412.69100000000003 348.202 412.58000000000004 347.906Q411.618 345.945 409.99 343.9655Q408.362 341.986 406.623 340.543ZM389.344 357.563Q388.71500000000003 358.414 388.71500000000003 359.302Q388.71500000000003 360.338 389.6215 361.115Q390.528 361.892 391.52700000000004 361.892Q392.119 361.892 392.48900000000003 361.5405Q392.85900000000004 361.189 392.85900000000004 360.486L392.896 354.418Q391.82300000000004 355.01 390.898 355.7685Q389.973 356.527 389.344 357.563ZM420.72 352.938Q420.202 352.938 420.202 352.42V349.016Q420.202 348.498 420.72 348.498H427.30600000000004L427.38 346.611V342.39300000000003H425.678Q425.567 342.615 425.23400000000004 343.37350000000004Q424.901 344.132 424.4755 344.983Q424.05 345.834 423.64300000000003 346.46299999999997Q423.236 347.092 422.97700000000003 347.092Q422.829 347.092 422.644 346.981L419.721 345.094Q419.462 344.946 419.462 344.687Q419.462 344.502 419.61 344.354Q421.164 342.282 422.163 339.692Q423.16200000000003 337.102 423.606 334.549Q423.71700000000004 334.068 424.19800000000004 334.105L427.565 334.586Q428.12 334.66 427.935 335.326Q427.639 336.658 427.269 337.953H435.927Q436.445 337.953 436.445 338.471V341.875Q436.445 342.39300000000003 435.927 342.39300000000003H431.74600000000004V346.574L431.709 348.498H436.66700000000003Q437.185 348.498 437.185 349.016V352.42Q437.185 352.938 436.66700000000003 352.938H431.45Q432.78200000000004 355.38 434.41 357.4705Q436.038 359.561 437.74 361.152Q437.962 361.3 437.962 361.559Q437.962 361.744 437.814 361.892L435.113 364.963Q434.96500000000003 365.148 434.743 365.148Q434.521 365.148 434.373 364.963Q433.115 363.446 431.93100000000004 361.65150000000006Q430.747 359.857 429.711 357.859Q428.601 360.782 426.788 363.224Q424.975 365.666 422.459 367.405Q422.31100000000004 367.516 422.163 367.516Q421.904 367.516 421.75600000000003 367.257L419.462 363.816Q419.351 363.631 419.351 363.52Q419.351 363.298 419.647 363.113Q422.385 361.522 424.161 359.0615Q425.937 356.601 426.75100000000003 352.938ZM438.295 337.805Q438.295 337.287 438.813 337.287H451.8Q452.318 337.287 452.318 337.805V365.74Q452.318 366.258 451.8 366.258H438.813Q438.295 366.258 438.295 365.74ZM442.809 341.69V361.855H447.80400000000003V341.69ZM465.749 336.177Q465.786 335.733 466.341 335.733Q469.93 335.733 473.5375 336.06600000000003Q477.14500000000004 336.399 480.105 337.361Q480.586 337.472 480.401 337.99L479.14300000000003 341.875Q478.958 342.356 478.47700000000003 342.171Q475.332 341.098 472.1685 340.765Q469.005 340.432 465.45300000000003 340.395Q464.898 340.395 465.009 339.84ZM464.269 365.999Q463.862 365.962 463.75100000000003 365.481L462.90000000000003 361.374Q462.90000000000003 360.93 463.45500000000004 361.041Q465.416 361.411 467.5435 361.6515Q469.671 361.892 471.743 361.892Q474.333 361.892 476.627 361.3925Q478.921 360.893 480.401 359.635Q481.289 358.895 481.7145 358.044Q482.14 357.193 482.14 356.379Q482.14 354.936 481.1965 354.12199999999996Q480.25300000000004 353.308 478.92100000000005 352.975Q477.589 352.642 476.40500000000003 352.642Q474.03700000000003 352.642 471.4285 353.6595Q468.82 354.677 466.37800000000004 356.712Q466.119 356.971 465.749 356.971L461.975 356.786Q461.42 356.786 461.494 356.26800000000003Q461.531 354.307 461.679 351.976Q461.827 349.645 462.049 347.31399999999996Q462.271 344.983 462.53000000000003 343.133Q462.567 342.652 463.08500000000004 342.652L467.081 342.763Q467.636 342.763 467.52500000000003 343.318Q467.15500000000003 345.353 466.91450000000003 347.55449999999996Q466.67400000000004 349.756 466.6 351.569Q469.301 349.756 472.02049999999997 348.99749999999995Q474.74 348.239 477.14500000000004 348.239Q478.551 348.239 479.7905 348.4425Q481.03000000000003 348.646 482.06600000000003 349.053Q484.80400000000003 350.089 486.136 352.05Q487.468 354.011 487.468 356.231Q487.468 358.081 486.5615 359.9125Q485.65500000000003 361.744 483.879 363.224Q481.622 365.111 478.44000000000005 365.88800000000003Q475.25800000000004 366.665 471.743 366.665Q469.89300000000003 366.665 468.00600000000003 366.48Q466.119 366.295 464.269 365.999ZM513.109 365.777Q511.296 365.777 509.446 365.68449999999996Q507.596 365.592 505.9125 365.185Q504.22900000000004 364.778 502.89700000000005 363.9085Q501.565 363.039 500.751 361.50350000000003Q499.937 359.968 499.826 357.6Q499.71500000000003 355.602 499.71500000000003 352.383L499.752 347.61L494.683 347.795Q494.165 347.795 494.165 347.277L494.12800000000004 343.577V343.503Q494.12800000000004 343.096 494.60900000000004 343.022L499.826 342.837L499.863 336.695Q499.863 336.177 500.38100000000003 336.177H504.488Q505.00600000000003 336.177 505.00600000000003 336.732L504.821 342.652L515.884 342.245Q515.884 339.211 515.773 336.436Q515.773 335.881 516.291 335.881L520.287 335.918Q520.8050000000001 335.918 520.8050000000001 336.436L520.842 342.097L526.207 341.875Q526.6510000000001 341.875 526.725 342.39300000000003L526.7620000000001 346.13Q526.7620000000001 346.648 526.2810000000001 346.648L520.768 346.87Q520.731 348.498 520.62 349.9225Q520.509 351.347 520.3240000000001 352.309Q519.991 354.566 518.9735000000001 355.6575Q517.956 356.749 516.4390000000001 357.1005Q514.922 357.452 512.961 357.452L510.593 357.378Q510.112 357.378 510.038 356.934L509.039 352.901Q509.039 352.42 509.557 352.531Q510.63 352.642 511.481 352.716Q512.332 352.79 512.961 352.79Q513.923 352.79 514.663 352.531Q515.403 352.272 515.588 351.162Q515.6990000000001 350.496 515.773 349.423Q515.847 348.35 515.884 347.01800000000003L504.747 347.425L504.71000000000004 351.532Q504.71000000000004 354.862 504.821 356.934Q504.932 358.858 505.746 359.746Q506.56 360.634 508.558 360.893Q509.113 360.93 509.9825 361.004Q510.85200000000003 361.078 511.999 361.078Q513.849 361.078 516.4205 360.9115Q518.992 360.745 522.322 360.301H522.433Q522.951 360.301 522.8770000000001 360.782L522.84 364.815Q522.84 365.296 521.804 365.407Q519.288 365.592 517.1235 365.68449999999996Q514.9590000000001 365.777 513.109 365.777Z" /></g><path d="M65 491L695 491" fill="none" stroke="#d4e4f2" stroke-width="2" stroke-linecap="round" /><g fill="#526e88" aria-label="Entertainment × Technology"><path d="M67.354 536.55Q67.09 536.55 67.09 536.286V519.72Q67.09 519.478 67.354 519.478H77.628Q77.892 519.478 77.892 519.72V521.062Q77.892 521.326 77.628 521.326H69.048V526.804H76.88Q77.122 526.804 77.122 527.068V528.388Q77.122 528.63 76.88 528.63H69.048V534.702H77.914Q78.134 534.702 78.134 534.944V536.286Q78.134 536.55 77.914 536.55ZM81.104 536.55Q80.84 536.55 80.84 536.286V525.044Q80.84 524.802 81.104 524.802H82.292Q82.556 524.802 82.556 525.044L82.644 526.914Q83.304 525.748 84.47 525.165Q85.636 524.582 86.846 524.582Q88.848 524.582 89.94800000000001 525.7370000000001Q91.048 526.892 91.048 528.916V536.286Q91.048 536.55 90.828 536.55H89.464Q89.2 536.55 89.2 536.286V529.686Q89.2 527.992 88.518 527.145Q87.836 526.298 86.362 526.298Q85.526 526.298 84.679 526.727Q83.832 527.156 83.271 528.047Q82.71000000000001 528.938 82.71000000000001 530.346V536.286Q82.71000000000001 536.55 82.468 536.55ZM98.68199999999999 536.792Q97.098 536.792 96.196 535.7470000000001Q95.294 534.702 95.294 532.48V526.474H93.226Q92.984 526.474 92.984 526.254V525.044Q92.984 524.802 93.226 524.802H95.294V521.194Q95.294 520.974 95.53599999999999 520.974H96.89999999999999Q97.16399999999999 520.974 97.16399999999999 521.194V524.802H100.41999999999999Q100.63999999999999 524.802 100.63999999999999 525.044V526.254Q100.63999999999999 526.474 100.41999999999999 526.474H97.16399999999999V532.524Q97.16399999999999 533.844 97.571 534.4490000000001Q97.978 535.054 98.85799999999999 535.054Q99.342 535.054 99.727 534.8009999999999Q100.112 534.548 100.37599999999999 533.998Q100.48599999999999 533.756 100.684 533.866L101.74 534.328Q101.96 534.438 101.82799999999999 534.702Q101.27799999999999 535.824 100.45299999999999 536.308Q99.62799999999999 536.792 98.68199999999999 536.792ZM108.75799999999998 536.792Q106.99799999999999 536.792 105.71099999999998 536.0Q104.42399999999999 535.208 103.72 533.822Q103.01599999999999 532.436 103.01599999999999 530.676Q103.01599999999999 528.894 103.72 527.519Q104.42399999999999 526.144 105.72199999999998 525.363Q107.01999999999998 524.582 108.75799999999998 524.582Q110.49599999999998 524.582 111.695 525.396Q112.89399999999999 526.21 113.50999999999999 527.6510000000001Q114.12599999999999 529.092 114.10399999999998 531.006Q114.10399999999998 531.27 113.83999999999999 531.27H104.95199999999998Q105.12799999999999 533.03 106.13999999999999 534.053Q107.15199999999999 535.076 108.75799999999998 535.076Q110.05599999999998 535.076 110.88099999999999 534.5699999999999Q111.70599999999999 534.064 112.18999999999998 533.118Q112.27799999999999 532.92 112.51999999999998 532.986L113.66399999999999 533.404Q113.92799999999998 533.47 113.81799999999998 533.712Q113.07 535.252 111.761 536.0219999999999Q110.45199999999998 536.792 108.75799999999998 536.792ZM108.75799999999998 526.254Q107.26199999999999 526.254 106.23899999999999 527.2Q105.216 528.146 104.97399999999999 529.796H112.12399999999998Q111.99199999999999 528.19 111.112 527.222Q110.23199999999999 526.254 108.75799999999998 526.254ZM116.94199999999998 536.55Q116.67799999999998 536.55 116.67799999999998 536.286V525.044Q116.67799999999998 524.802 116.94199999999998 524.802H118.12999999999998Q118.39399999999998 524.802 118.39399999999998 525.044L118.48199999999999 527.068Q119.11999999999998 525.902 120.18699999999998 525.2750000000001Q121.25399999999998 524.648 122.48599999999998 524.648Q122.68399999999998 524.648 122.83799999999998 524.648Q122.99199999999998 524.648 123.10199999999998 524.692Q123.32199999999997 524.714 123.32199999999997 524.956V526.298Q123.32199999999997 526.562 123.05799999999998 526.518Q122.90399999999998 526.496 122.71699999999998 526.4739999999999Q122.52999999999999 526.452 122.26599999999998 526.452Q121.29799999999997 526.452 120.45099999999998 526.947Q119.60399999999998 527.442 119.076 528.278Q118.54799999999999 529.114 118.54799999999999 530.17V536.286Q118.54799999999999 536.55 118.30599999999998 536.55ZM129.658 536.792Q128.07399999999998 536.792 127.17199999999998 535.7470000000001Q126.26999999999998 534.702 126.26999999999998 532.48V526.474H124.20199999999998Q123.95999999999998 526.474 123.95999999999998 526.254V525.044Q123.95999999999998 524.802 124.20199999999998 524.802H126.26999999999998V521.194Q126.26999999999998 520.974 126.51199999999997 520.974H127.87599999999998Q128.14 520.974 128.14 521.194V524.802H131.396Q131.61599999999999 524.802 131.61599999999999 525.044V526.254Q131.61599999999999 526.474 131.396 526.474H128.14V532.524Q128.14 533.844 128.54699999999997 534.4490000000001Q128.95399999999998 535.054 129.83399999999997 535.054Q130.31799999999998 535.054 130.70299999999997 534.8009999999999Q131.08799999999997 534.548 131.35199999999998 533.998Q131.462 533.756 131.65999999999997 533.866L132.71599999999998 534.328Q132.93599999999998 534.438 132.80399999999997 534.702Q132.25399999999996 535.824 131.42899999999997 536.308Q130.60399999999998 536.792 129.658 536.792ZM139.60199999999998 536.792Q137.90799999999996 536.792 136.64299999999997 536.0Q135.378 535.208 134.68499999999997 533.833Q133.99199999999996 532.458 133.99199999999996 530.676Q133.99199999999996 528.894 134.68499999999997 527.519Q135.378 526.144 136.64299999999997 525.363Q137.90799999999996 524.582 139.60199999999998 524.582Q141.00999999999996 524.582 142.16499999999996 525.2090000000001Q143.31999999999996 525.836 143.93599999999998 526.914L144.00199999999998 525.044Q144.00199999999998 524.802 144.26599999999996 524.802H145.45399999999998Q145.69599999999997 524.802 145.69599999999997 525.044V536.286Q145.69599999999997 536.55 145.45399999999998 536.55H144.26599999999996Q144.00199999999998 536.55 144.00199999999998 536.286L143.93599999999998 534.416Q143.31999999999996 535.494 142.16499999999996 536.143Q141.00999999999996 536.792 139.60199999999998 536.792ZM139.95399999999998 535.054Q141.16399999999996 535.054 142.06599999999997 534.5039999999999Q142.96799999999996 533.954 143.48499999999996 532.9639999999999Q144.00199999999998 531.974 144.00199999999998 530.676Q144.00199999999998 529.356 143.48499999999996 528.377Q142.96799999999996 527.398 142.06599999999997 526.848Q141.16399999999996 526.298 139.95399999999998 526.298Q138.76599999999996 526.298 137.85299999999995 526.848Q136.93999999999997 527.398 136.42299999999997 528.377Q135.90599999999998 529.356 135.90599999999998 530.676Q135.90599999999998 531.974 136.42299999999997 532.9639999999999Q136.93999999999997 533.954 137.85299999999995 534.5039999999999Q138.76599999999996 535.054 139.95399999999998 535.054ZM150.27199999999996 522.162Q149.74399999999997 522.162 149.39199999999997 521.832Q149.03999999999996 521.502 149.03999999999996 520.974Q149.03999999999996 520.446 149.39199999999997 520.116Q149.74399999999997 519.7860000000001 150.27199999999996 519.7860000000001Q150.77799999999996 519.7860000000001 151.14099999999996 520.116Q151.50399999999996 520.446 151.50399999999996 520.974Q151.50399999999996 521.502 151.14099999999996 521.832Q150.77799999999996 522.162 150.27199999999996 522.162ZM150.90999999999997 524.802Q151.17399999999995 524.802 151.17399999999995 525.066V536.286Q151.17399999999995 536.55 150.90999999999997 536.55H149.63399999999996Q149.36999999999998 536.55 149.36999999999998 536.286V525.066Q149.36999999999998 524.802 149.63399999999996 524.802ZM155.06799999999998 536.55Q154.80399999999997 536.55 154.80399999999997 536.286V525.044Q154.80399999999997 524.802 155.06799999999998 524.802H156.25599999999997Q156.51999999999998 524.802 156.51999999999998 525.044L156.60799999999998 526.914Q157.26799999999997 525.748 158.43399999999997 525.165Q159.59999999999997 524.582 160.80999999999997 524.582Q162.81199999999998 524.582 163.91199999999998 525.7370000000001Q165.01199999999997 526.892 165.01199999999997 528.916V536.286Q165.01199999999997 536.55 164.79199999999997 536.55H163.42799999999997Q163.16399999999996 536.55 163.16399999999996 536.286V529.686Q163.16399999999996 527.992 162.48199999999997 527.145Q161.79999999999998 526.298 160.32599999999996 526.298Q159.48999999999998 526.298 158.64299999999997 526.727Q157.79599999999996 527.156 157.23499999999996 528.047Q156.67399999999998 528.938 156.67399999999998 530.346V536.286Q156.67399999999998 536.55 156.43199999999996 536.55ZM168.83999999999997 536.55Q168.57599999999996 536.55 168.57599999999996 536.286V525.044Q168.57599999999996 524.802 168.83999999999997 524.802H170.02799999999996Q170.29199999999997 524.802 170.29199999999997 525.044L170.37999999999997 526.98Q170.99599999999995 525.792 172.10699999999997 525.187Q173.21799999999996 524.582 174.42799999999997 524.582Q175.85799999999998 524.582 176.837 525.264Q177.81599999999997 525.946 178.21199999999996 527.178Q178.82799999999997 525.88 180.00499999999997 525.231Q181.18199999999996 524.582 182.45799999999997 524.582Q184.34999999999997 524.582 185.43899999999996 525.7370000000001Q186.52799999999996 526.892 186.52799999999996 528.916V536.286Q186.52799999999996 536.55 186.30799999999996 536.55H184.94399999999996Q184.67999999999995 536.55 184.67999999999995 536.286V529.686Q184.67999999999995 526.298 181.97399999999996 526.298Q181.15999999999997 526.298 180.35699999999997 526.727Q179.55399999999997 527.156 179.02599999999995 528.047Q178.49799999999996 528.938 178.49799999999996 530.346V536.286Q178.49799999999996 536.55 178.25599999999997 536.55H176.89199999999997Q176.62799999999996 536.55 176.62799999999996 536.286V529.686Q176.62799999999996 526.298 173.94399999999996 526.298Q173.12999999999997 526.298 172.31599999999997 526.727Q171.50199999999995 527.156 170.97399999999996 528.047Q170.44599999999997 528.938 170.44599999999997 530.346V536.286Q170.44599999999997 536.55 170.20399999999995 536.55ZM194.99799999999996 536.792Q193.23799999999994 536.792 191.95099999999996 536.0Q190.66399999999996 535.208 189.95999999999995 533.822Q189.25599999999994 532.436 189.25599999999994 530.676Q189.25599999999994 528.894 189.95999999999995 527.519Q190.66399999999996 526.144 191.96199999999996 525.363Q193.25999999999996 524.582 194.99799999999996 524.582Q196.73599999999996 524.582 197.93499999999995 525.396Q199.13399999999996 526.21 199.74999999999994 527.6510000000001Q200.36599999999996 529.092 200.34399999999997 531.006Q200.34399999999997 531.27 200.07999999999996 531.27H191.19199999999995Q191.36799999999997 533.03 192.37999999999997 534.053Q193.39199999999997 535.076 194.99799999999996 535.076Q196.29599999999996 535.076 197.12099999999995 534.5699999999999Q197.94599999999994 534.064 198.42999999999995 533.118Q198.51799999999994 532.92 198.75999999999996 532.986L199.90399999999994 533.404Q200.16799999999995 533.47 200.05799999999996 533.712Q199.30999999999995 535.252 198.00099999999995 536.0219999999999Q196.69199999999995 536.792 194.99799999999996 536.792ZM194.99799999999996 526.254Q193.50199999999995 526.254 192.47899999999996 527.2Q191.45599999999996 528.146 191.21399999999994 529.796H198.36399999999995Q198.23199999999994 528.19 197.35199999999995 527.222Q196.47199999999995 526.254 194.99799999999996 526.254ZM203.18199999999996 536.55Q202.91799999999995 536.55 202.91799999999995 536.286V525.044Q202.91799999999995 524.802 203.18199999999996 524.802H204.36999999999995Q204.63399999999996 524.802 204.63399999999996 525.044L204.72199999999995 526.914Q205.38199999999995 525.748 206.54799999999994 525.165Q207.71399999999994 524.582 208.92399999999995 524.582Q210.92599999999996 524.582 212.02599999999995 525.7370000000001Q213.12599999999995 526.892 213.12599999999995 528.916V536.286Q213.12599999999995 536.55 212.90599999999995 536.55H211.54199999999994Q211.27799999999993 536.55 211.27799999999993 536.286V529.686Q211.27799999999993 527.992 210.59599999999995 527.145Q209.91399999999996 526.298 208.43999999999994 526.298Q207.60399999999996 526.298 206.75699999999995 526.727Q205.90999999999994 527.156 205.34899999999993 528.047Q204.78799999999995 528.938 204.78799999999995 530.346V536.286Q204.78799999999995 536.55 204.54599999999994 536.55ZM220.75999999999993 536.792Q219.17599999999993 536.792 218.27399999999994 535.7470000000001Q217.37199999999993 534.702 217.37199999999993 532.48V526.474H215.30399999999995Q215.06199999999993 526.474 215.06199999999993 526.254V525.044Q215.06199999999993 524.802 215.30399999999995 524.802H217.37199999999993V521.194Q217.37199999999993 520.974 217.61399999999995 520.974H218.97799999999995Q219.24199999999993 520.974 219.24199999999993 521.194V524.802H222.49799999999993Q222.71799999999993 524.802 222.71799999999993 525.044V526.254Q222.71799999999993 526.474 222.49799999999993 526.474H219.24199999999993V532.524Q219.24199999999993 533.844 219.64899999999994 534.4490000000001Q220.05599999999993 535.054 220.93599999999995 535.054Q221.41999999999993 535.054 221.80499999999995 534.8009999999999Q222.18999999999994 534.548 222.45399999999995 533.998Q222.56399999999994 533.756 222.76199999999994 533.866L223.81799999999993 534.328Q224.03799999999993 534.438 223.90599999999995 534.702Q223.35599999999994 535.824 222.53099999999995 536.308Q221.70599999999993 536.792 220.75999999999993 536.792ZM238.00799999999995 531.534Q237.94199999999995 531.468 237.93099999999995 531.358Q237.91999999999996 531.248 238.00799999999995 531.16L241.52799999999996 527.618L237.96399999999994 524.098Q237.78799999999995 523.922 237.96399999999994 523.724L238.84399999999994 522.844Q238.90999999999994 522.734 239.01999999999992 522.745Q239.12999999999994 522.756 239.19599999999994 522.844L242.75999999999996 526.386L246.27999999999994 522.888Q246.34599999999995 522.822 246.46699999999996 522.8Q246.58799999999997 522.778 246.65399999999994 522.866L247.46799999999996 523.702Q247.62199999999996 523.9 247.44599999999994 524.076L243.94799999999995 527.574L247.48999999999995 531.116Q247.57799999999995 531.182 247.56699999999995 531.292Q247.55599999999995 531.402 247.48999999999995 531.468L246.63199999999995 532.348Q246.43399999999994 532.502 246.23599999999996 532.348L242.69399999999996 528.806L239.17399999999995 532.348Q239.10799999999995 532.436 238.99799999999993 532.436Q238.88799999999995 532.436 238.82199999999995 532.348ZM268.1699999999999 536.55Q267.90599999999995 536.55 267.90599999999995 536.286V521.326H262.29599999999994Q262.0759999999999 521.326 262.0759999999999 521.062V519.72Q262.0759999999999 519.478 262.29599999999994 519.478H275.47399999999993Q275.6939999999999 519.478 275.6939999999999 519.72V521.062Q275.6939999999999 521.326 275.47399999999993 521.326H269.8639999999999V536.286Q269.8639999999999 536.55 269.5999999999999 536.55ZM283.1739999999999 536.792Q281.41399999999993 536.792 280.12699999999995 536.0Q278.8399999999999 535.208 278.13599999999997 533.822Q277.43199999999996 532.436 277.43199999999996 530.676Q277.43199999999996 528.894 278.13599999999997 527.519Q278.8399999999999 526.144 280.1379999999999 525.363Q281.4359999999999 524.582 283.1739999999999 524.582Q284.9119999999999 524.582 286.11099999999993 525.396Q287.30999999999995 526.21 287.92599999999993 527.6510000000001Q288.5419999999999 529.092 288.5199999999999 531.006Q288.5199999999999 531.27 288.2559999999999 531.27H279.36799999999994Q279.5439999999999 533.03 280.5559999999999 534.053Q281.5679999999999 535.076 283.1739999999999 535.076Q284.4719999999999 535.076 285.2969999999999 534.5699999999999Q286.12199999999996 534.064 286.60599999999994 533.118Q286.69399999999996 532.92 286.9359999999999 532.986L288.0799999999999 533.404Q288.34399999999994 533.47 288.2339999999999 533.712Q287.48599999999993 535.252 286.1769999999999 536.0219999999999Q284.86799999999994 536.792 283.1739999999999 536.792ZM283.1739999999999 526.254Q281.67799999999994 526.254 280.655 527.2Q279.63199999999995 528.146 279.38999999999993 529.796H286.53999999999996Q286.40799999999996 528.19 285.52799999999996 527.222Q284.64799999999997 526.254 283.1739999999999 526.254ZM296.10999999999996 536.792Q294.328 536.792 293.008 536.0Q291.688 535.208 290.97299999999996 533.833Q290.258 532.458 290.258 530.676Q290.258 528.872 290.984 527.508Q291.71 526.144 293.019 525.363Q294.328 524.582 296.10999999999996 524.582Q297.936 524.582 299.20099999999996 525.374Q300.46599999999995 526.166 301.08199999999994 527.794Q301.14799999999997 528.014 300.90599999999995 528.08L299.76199999999994 528.432Q299.56399999999996 528.498 299.45399999999995 528.278Q298.508 526.298 296.198 526.298Q294.81199999999995 526.298 293.92099999999994 526.903Q293.03 527.508 292.601 528.509Q292.17199999999997 529.51 292.17199999999997 530.676Q292.17199999999997 531.842 292.61199999999997 532.8430000000001Q293.05199999999996 533.844 293.943 534.4490000000001Q294.83399999999995 535.054 296.198 535.054Q298.61799999999994 535.054 299.52 532.964Q299.60799999999995 532.766 299.828 532.832L301.08199999999994 533.162Q301.32399999999996 533.228 301.21399999999994 533.448Q300.57599999999996 535.142 299.256 535.9670000000001Q297.936 536.792 296.10999999999996 536.792ZM304.11799999999994 536.55Q303.8539999999999 536.55 303.8539999999999 536.286V519.346Q303.8539999999999 519.104 304.11799999999994 519.104H305.48199999999997Q305.72399999999993 519.104 305.72399999999993 519.346V526.782Q306.40599999999995 525.682 307.54999999999995 525.1320000000001Q308.69399999999996 524.582 309.85999999999996 524.582Q311.86199999999997 524.582 312.962 525.7370000000001Q314.06199999999995 526.892 314.06199999999995 528.916V536.286Q314.06199999999995 536.55 313.8419999999999 536.55H312.47799999999995Q312.21399999999994 536.55 312.21399999999994 536.286V529.686Q312.21399999999994 527.992 311.5319999999999 527.145Q310.84999999999997 526.298 309.376 526.298Q308.53999999999996 526.298 307.693 526.727Q306.84599999999995 527.156 306.28499999999997 528.047Q305.72399999999993 528.938 305.72399999999993 530.346V536.286Q305.72399999999993 536.55 305.48199999999997 536.55ZM317.88999999999993 536.55Q317.6259999999999 536.55 317.6259999999999 536.286V525.044Q317.6259999999999 524.802 317.88999999999993 524.802H319.0779999999999Q319.3419999999999 524.802 319.3419999999999 525.044L319.42999999999995 526.914Q320.0899999999999 525.748 321.256 525.165Q322.42199999999997 524.582 323.63199999999995 524.582Q325.63399999999996 524.582 326.7339999999999 525.7370000000001Q327.83399999999995 526.892 327.83399999999995 528.916V536.286Q327.83399999999995 536.55 327.6139999999999 536.55H326.24999999999994Q325.98599999999993 536.55 325.98599999999993 536.286V529.686Q325.98599999999993 527.992 325.304 527.145Q324.62199999999996 526.298 323.14799999999997 526.298Q322.31199999999995 526.298 321.4649999999999 526.727Q320.61799999999994 527.156 320.0569999999999 528.047Q319.4959999999999 528.938 319.4959999999999 530.346V536.286Q319.4959999999999 536.55 319.25399999999996 536.55ZM336.52399999999994 536.792Q334.7199999999999 536.792 333.37799999999993 536.0Q332.03599999999994 535.208 331.299 533.822Q330.56199999999995 532.436 330.56199999999995 530.676Q330.56199999999995 528.894 331.299 527.519Q332.03599999999994 526.144 333.37799999999993 525.363Q334.7199999999999 524.582 336.52399999999994 524.582Q338.3279999999999 524.582 339.66999999999996 525.363Q341.01199999999994 526.144 341.75999999999993 527.519Q342.5079999999999 528.894 342.5079999999999 530.676Q342.5079999999999 532.436 341.75999999999993 533.822Q341.01199999999994 535.208 339.66999999999996 536.0Q338.3279999999999 536.792 336.52399999999994 536.792ZM336.52399999999994 535.054Q337.7339999999999 535.054 338.63599999999997 534.5039999999999Q339.53799999999995 533.954 340.05499999999995 532.9639999999999Q340.57199999999995 531.974 340.57199999999995 530.676Q340.57199999999995 529.356 340.05499999999995 528.377Q339.53799999999995 527.398 338.63599999999997 526.848Q337.7339999999999 526.298 336.52399999999994 526.298Q335.33599999999996 526.298 334.42299999999994 526.848Q333.50999999999993 527.398 332.99299999999994 528.377Q332.47599999999994 529.356 332.47599999999994 530.676Q332.47599999999994 531.974 332.99299999999994 532.9639999999999Q333.50999999999993 533.954 334.42299999999994 534.5039999999999Q335.33599999999996 535.054 336.52399999999994 535.054ZM345.52199999999993 536.55Q345.2579999999999 536.55 345.2579999999999 536.286V519.346Q345.2579999999999 519.104 345.52199999999993 519.104H346.88599999999997Q347.12799999999993 519.104 347.12799999999993 519.346V536.286Q347.12799999999993 536.55 346.88599999999997 536.55ZM355.86199999999997 536.792Q354.05799999999994 536.792 352.71599999999995 536.0Q351.37399999999997 535.208 350.63699999999994 533.822Q349.9 532.436 349.9 530.676Q349.9 528.894 350.63699999999994 527.519Q351.37399999999997 526.144 352.71599999999995 525.363Q354.05799999999994 524.582 355.86199999999997 524.582Q357.66599999999994 524.582 359.0079999999999 525.363Q360.34999999999997 526.144 361.09799999999996 527.519Q361.84599999999995 528.894 361.84599999999995 530.676Q361.84599999999995 532.436 361.09799999999996 533.822Q360.34999999999997 535.208 359.0079999999999 536.0Q357.66599999999994 536.792 355.86199999999997 536.792ZM355.86199999999997 535.054Q357.07199999999995 535.054 357.97399999999993 534.5039999999999Q358.876 533.954 359.393 532.9639999999999Q359.90999999999997 531.974 359.90999999999997 530.676Q359.90999999999997 529.356 359.393 528.377Q358.876 527.398 357.97399999999993 526.848Q357.07199999999995 526.298 355.86199999999997 526.298Q354.674 526.298 353.76099999999997 526.848Q352.84799999999996 527.398 352.33099999999996 528.377Q351.81399999999996 529.356 351.81399999999996 530.676Q351.81399999999996 531.974 352.33099999999996 532.9639999999999Q352.84799999999996 533.954 353.76099999999997 534.5039999999999Q354.674 535.054 355.86199999999997 535.054ZM369.678 541.852Q367.78599999999994 541.852 366.38899999999995 541.016Q364.99199999999996 540.18 364.354 538.574Q364.24399999999997 538.332 364.486 538.266L365.60799999999995 537.848Q365.806 537.738 365.938 537.958Q366.4 538.97 367.28 539.553Q368.15999999999997 540.136 369.63399999999996 540.136Q370.66799999999995 540.136 371.56999999999994 539.806Q372.472 539.476 373.044 538.684Q373.616 537.892 373.616 536.55V534.548Q372.95599999999996 535.56 371.84499999999997 536.1759999999999Q370.734 536.792 369.36999999999995 536.792Q367.676 536.792 366.41099999999994 536.0Q365.14599999999996 535.208 364.453 533.833Q363.76 532.458 363.76 530.676Q363.76 528.894 364.453 527.519Q365.14599999999996 526.144 366.41099999999994 525.363Q367.676 524.582 369.36999999999995 524.582Q370.77799999999996 524.582 371.933 525.2090000000001Q373.08799999999997 525.836 373.70399999999995 526.914L373.77 525.044Q373.77 524.802 374.034 524.802H375.222Q375.464 524.802 375.464 525.044V536.374Q375.464 538.266 374.69399999999996 539.476Q373.924 540.686 372.615 541.269Q371.306 541.852 369.678 541.852ZM369.722 535.054Q370.93199999999996 535.054 371.83399999999995 534.5039999999999Q372.736 533.954 373.253 532.9639999999999Q373.77 531.974 373.77 530.676Q373.77 529.356 373.253 528.377Q372.736 527.398 371.83399999999995 526.848Q370.93199999999996 526.298 369.722 526.298Q368.534 526.298 367.621 526.848Q366.70799999999997 527.398 366.191 528.377Q365.674 529.356 365.674 530.676Q365.674 531.974 366.191 532.9639999999999Q366.70799999999997 533.954 367.621 534.5039999999999Q368.534 535.054 369.722 535.054ZM380.876 541.61Q380.61199999999997 541.61 380.67799999999994 541.346L382.768 536.154L377.92799999999994 525.088Q377.79599999999994 524.802 378.104 524.802H379.73199999999997Q379.95199999999994 524.802 380.03999999999996 525.0L383.736 533.866L387.234 525.0Q387.34399999999994 524.802 387.52 524.802H389.03799999999995Q389.34599999999995 524.802 389.21399999999994 525.088L382.614 541.434Q382.52599999999995 541.61 382.306 541.61Z" /></g><g transform="translate(853 143) scale(7.59375)" fill="none" stroke="#317add" stroke-width="2"><path d="M16 1v30M1 16h30M5.4 5.4l21.2 21.2M5.4 26.6 26.6 5.4" /></g><g transform="translate(989 414) scale(2.15625)" fill="none" stroke="#13b7c0" stroke-width="2"><path d="M16 1v30M1 16h30M5.4 5.4l21.2 21.2M5.4 26.6 26.6 5.4" /></g></svg>