<svg xmlns="http://www.w3.org/2000/svg" width="1200" height="630" viewBox="0 0 1200 630" role="img" aria-labelledby="title"><title id="title">MYSTENA social sharing image English concept</title><defs><linearGradient id="bottle" x2="1" y2=".3"><stop stop-color="#1674d3"/><stop offset=".52" stop-color="#6cd9ed"/><stop offset="1" stop-color="#207bc6"/></linearGradient><linearGradient id="wash" x1="0" y1="0" x2="1" y2="1"><stop stop-color="#e8f8ff"/><stop offset=".62" stop-color="#e6eeff"/><stop offset="1" stop-color="#d2f5ee"/></linearGradient><linearGradient id="brand" x2="1" y2=".4"><stop stop-color="#0560ed"/><stop offset=".56" stop-color="#208cdf"/><stop offset="1" stop-color="#13babd"/></linearGradient></defs><rect x="0" y="0" width="1200" height="630" rx="0" fill="#f9fcff" stroke="none"/><rect x="836" y="0" width="364" height="630" rx="0" fill="url(#wash)" stroke="none"/><text x="65" y="89" font-family="LINE Seed JP, sans-serif" font-size="37" font-weight="700" fill="#152b42" text-anchor="start" data-font="logo" letter-spacing="-2.775">MYSTENA</text><g transform="translate(271 51) scale(1.15625)" fill="none" stroke="#1262eb" stroke-width="2"><path d="M16 1v30M1 16h30M5.4 5.4l21.2 21.2M5.4 26.6 26.6 5.4"/></g><text x="65" y="133" font-family="LINE Seed JP, sans-serif" font-size="18" font-weight="400" fill="#526e88" text-anchor="start" >Entertainment × Technology</text><g transform="translate(837 165) scale(6.875)" fill="none" stroke="#2179de" stroke-width="2"><path d="M16 1v30M1 16h30M5.4 5.4l21.2 21.2M5.4 26.6 26.6 5.4"/></g><g transform="translate(1010 355) scale(3.375)" fill="none" stroke="#22b9c7" stroke-width="2"><path d="M16 1v30M1 16h30M5.4 5.4l21.2 21.2M5.4 26.6 26.6 5.4"/></g><path d="M857 470L1150 177" fill="none" stroke="#70c8e2" stroke-width="2" stroke-linecap="round"/><circle cx="1032" cy="119" r="17" fill="#66dcd5"/><circle cx="902" cy="543" r="8" fill="#227be0"/><text x="63" y="273" font-family="LINE Seed JP, sans-serif" font-size="55" font-weight="700" fill="#152b42" text-anchor="start" >Create engaging</text><text x="63" y="338" font-family="LINE Seed JP, sans-serif" font-size="55" font-weight="700" fill="#152b42" text-anchor="start" >experiences.</text><text x="63" y="414" font-family="LINE Seed JP, sans-serif" font-size="40" font-weight="700" fill="url(#brand)" text-anchor="start" >Bring their appeal to life.</text><path d="M65 506L758 506" fill="none" stroke="#d4e4f2" stroke-width="2" stroke-linecap="round"/><text x="65" y="555" font-family="LINE Seed JP, sans-serif" font-size="20" font-weight="400" fill="#526e88" text-anchor="start" >Planning · Development · Creative · Promotion</text></svg>