<svg xmlns="http://www.w3.org/2000/svg" width="1200" height="630" viewBox="0 0 1200 630" role="img" aria-labelledby="title"><title id="title">一旦採用した共有画像の記号なし比較案</title><defs>
 <linearGradient id="wash" x2="1" y2="1"><stop stop-color="#eaf3ff"/><stop offset=".6" stop-color="#edf7fc"/><stop offset="1" stop-color="#dcefe9"/></linearGradient>
 <linearGradient id="brand" x2="1" y2=".3"><stop stop-color="#145bd1"/><stop offset="1" stop-color="#1aa6b4"/></linearGradient>
 <linearGradient id="foil" x2="1" y2="1"><stop stop-color="#b5d6e5"/><stop offset=".24" stop-color="#f5efe2"/><stop offset=".52" stop-color="#b8dace"/><stop offset=".78" stop-color="#ccd4ef"/><stop offset="1" stop-color="#ebddbc"/></linearGradient>
 <linearGradient id="metal" x2=".95" y2=".9"><stop stop-color="#e1e7ee"/><stop offset=".42" stop-color="#a1b2c4"/><stop offset=".6" stop-color="#f0f4f8"/><stop offset="1" stop-color="#6c8199"/></linearGradient>
 <linearGradient id="lens" x2="1" y2="1"><stop stop-color="#121f36"/><stop offset=".5" stop-color="#326c8d"/><stop offset="1" stop-color="#08253c"/></linearGradient>
</defs><rect x="0" y="0" width="1200" height="630" rx="0" fill="#f7fbff" stroke="none"/><rect x="779" y="0" width="421" height="630" rx="0" fill="url(#wash)" stroke="none"/><text x="65" y="90" font-family="LINE Seed JP, sans-serif" font-size="37" font-weight="700" fill="#152b42" text-anchor="start" data-font="logo" letter-spacing="-2.775">MYSTENA</text><text x="65" y="134" font-family="LINE Seed JP, sans-serif" font-size="18" font-weight="400" fill="#5b7186" text-anchor="start" >Entertainment × Technology</text><g transform="translate(873 135) scale(1)"><g transform="rotate(-13 126 176)"><rect x="-18" y="37" width="239" height="301" rx="20" fill="#b6d8ed" stroke="none"/></g><g transform="rotate(7 126 176)"><rect x="32" y="8" width="235" height="303" rx="18" fill="#72b5d7" stroke="none"/></g><rect x="0" y="48" width="240" height="303" rx="18" fill="#e3f4fb" stroke="#3b8eb5"/><rect x="23" y="72" width="195" height="125" rx="9" fill="#fafdff" stroke="none"/><path d="M28 224L188 224" fill="none" stroke="#5d9cbe" stroke-width="6" stroke-linecap="round" stroke-linejoin="round"/><path d="M28 248L154 248" fill="none" stroke="#8abbd3" stroke-width="5" stroke-linecap="round" stroke-linejoin="round"/><rect x="27" y="281" width="99" height="22" rx="11" fill="#2c91b7" stroke="none"/></g><text x="63" y="318" font-family="LINE Seed JP, sans-serif" font-size="65" font-weight="700" fill="#152b42" text-anchor="start" >楽しさをつくる。</text><text x="63" y="411" font-family="LINE Seed JP, sans-serif" font-size="65" font-weight="700" fill="url(#brand)" text-anchor="start" >魅力を届ける。</text><path d="M65 506L732 506" fill="none" stroke="#d5e1ee" stroke-width="2" stroke-linecap="round" stroke-linejoin="round"/><text x="65" y="555" font-family="LINE Seed JP, sans-serif" font-size="24" font-weight="400" fill="#5b7186" text-anchor="start" >企画・開発・表現・販売促進</text></svg>