<svg xmlns="http://www.w3.org/2000/svg" width="1600" height="900" viewBox="0 0 1600 900" role="img" aria-labelledby="title"><title id="title">ミステリーボックスとコレクティブ商品を見せる動画表紙</title><defs>
 <linearGradient id="wash" x2="1" y2="1"><stop stop-color="#eaf3ff"/><stop offset=".6" stop-color="#edf7fc"/><stop offset="1" stop-color="#dcefe9"/></linearGradient>
 <linearGradient id="brand" x2="1" y2=".3"><stop stop-color="#145bd1"/><stop offset="1" stop-color="#1aa6b4"/></linearGradient>
 <linearGradient id="foil" x2="1" y2="1"><stop stop-color="#b5d6e5"/><stop offset=".24" stop-color="#f5efe2"/><stop offset=".52" stop-color="#b8dace"/><stop offset=".78" stop-color="#ccd4ef"/><stop offset="1" stop-color="#ebddbc"/></linearGradient>
 <linearGradient id="metal" x2=".95" y2=".9"><stop stop-color="#e1e7ee"/><stop offset=".42" stop-color="#a1b2c4"/><stop offset=".6" stop-color="#f0f4f8"/><stop offset="1" stop-color="#6c8199"/></linearGradient>
 <linearGradient id="lens" x2="1" y2="1"><stop stop-color="#121f36"/><stop offset=".5" stop-color="#326c8d"/><stop offset="1" stop-color="#08253c"/></linearGradient>
</defs><rect x="0" y="0" width="1600" height="900" rx="0" fill="url(#wash)" stroke="none"/><text x="77" y="108" font-family="LINE Seed JP, sans-serif" font-size="43" font-weight="700" fill="#152b42" text-anchor="start" data-font="logo" letter-spacing="-3.225">MYSTENA</text><text x="78" y="178" font-family="LINE Seed JP, sans-serif" font-size="22" font-weight="700" fill="#1262d3" text-anchor="start" >MYSTERY BOX / SERVICE CONCEPT</text><text x="78" y="320" font-family="LINE Seed JP, sans-serif" font-size="53" font-weight="700" fill="#152b42" text-anchor="start" >コレクションに出会う。</text><text x="78" y="402" font-family="LINE Seed JP, sans-serif" font-size="55" font-weight="700" fill="#152b42" text-anchor="start" >ボックスをひらく。</text><text x="78" y="476" font-family="LINE Seed JP, sans-serif" font-size="27" font-weight="400" fill="#5b7186" text-anchor="start" >商品情報から、開封体験まで。</text><rect x="839" y="181" width="683" height="535" rx="18" fill="#fff" stroke="#d5e1ee"/><rect x="840" y="182" width="681" height="53" rx="18" fill="#edf3f9" stroke="none"/><rect x="840" y="211" width="681" height="23" rx="0" fill="#edf3f9" stroke="none"/><circle cx="865" cy="206" r="5" fill="#acc1d4"/><circle cx="886" cy="206" r="5" fill="#acc1d4"/><circle cx="907" cy="206" r="5" fill="#acc1d4"/><rect x="867" y="258" width="627" height="384" rx="12" fill="#eff5fa" stroke="none"/><rect x="887" y="278" width="183" height="266" rx="8" fill="#fff" stroke="none"/><g transform="translate(920 297) scale(0.72)"><g transform="translate(7 15) rotate(-7 80 120)"><rect x="0" y="0" width="160" height="238" rx="11" fill="#8ea9c0" stroke="#7795ae"/><rect x="14" y="18" width="132" height="198" rx="6" fill="#c3d6e4" stroke="none"/></g><g transform="translate(16 0) scale(1)"><rect x="0" y="0" width="160" height="239" rx="11" fill="#edf3f7" stroke="#a8bdcf"/><rect x="9" y="8" width="142" height="220" rx="6" fill="#fafcfe" stroke="#d3dfe6"/><rect x="26" y="14" width="107" height="14" rx="5" fill="#d6e2ed" stroke="none"/><rect x="16" y="37" width="128" height="179" rx="6" fill="#304762" stroke="none"/><rect x="22" y="43" width="116" height="140" rx="3" fill="url(#foil)" stroke="none"/><rect x="29" y="50" width="102" height="125" rx="2" fill="#bed8e6" stroke="none"/><path d="M29 154 52 137 71 151 92 130 131 153v22H29Z" fill="#7ba6bd" stroke="none" stroke-width="2" stroke-linecap="round" stroke-linejoin="round"/><path d="M41 135q10-28 35-50l-4-23q17 8 23 23 22-13 34-10-5 21-23 31 5 28-13 50l-7-29-18 29 1-31Z" fill="#2f648a" stroke="#214b71" stroke-width="1.5" stroke-linecap="round" stroke-linejoin="round"/><path d="M76 89Q40 51 34 64q6 32 38 46M98 94q14-28 27-25-4 27-24 40" fill="#f6fcff" stroke="#497e9d" stroke-width="1.4" stroke-linecap="round" stroke-linejoin="round"/><path d="M86 85q4-11 12-8l8 9-13 8-10 25-7-1 6-26Z" fill="#d7edf3" stroke="#34647f" stroke-width="1.2" stroke-linecap="round" stroke-linejoin="round"/><circle cx="99" cy="84" r="1.7" fill="#142d42"/><path d="M104 107q26 3 27 29-16-9-29-8" fill="#6196b0" stroke="#37657f" stroke-width="1.2" stroke-linecap="round" stroke-linejoin="round"/><path d="M25 192L128 192" fill="none" stroke="#dfeaf2" stroke-width="4" stroke-linecap="round" stroke-linejoin="round"/><path d="M25 203L90 203" fill="none" stroke="#a6bace" stroke-width="3" stroke-linecap="round" stroke-linejoin="round"/></g></g><rect x="1085" y="278" width="184" height="266" rx="8" fill="#fff" stroke="none"/><g transform="translate(1109 303) scale(0.66)"><path d="M65 9 23 31 0 120 38 136 49 235h111l11-99 38-16-24-89-43-22Z" fill="#243c55" stroke="#152d43" stroke-width="2" stroke-linecap="round" stroke-linejoin="round"/><path d="M65 9 96 24 142 9 158 41 126 69 110 51 77 75 54 40Z" fill="#60788b" stroke="none" stroke-width="2" stroke-linecap="round" stroke-linejoin="round"/><path d="M65 9 96 24 83 86 53 45Z" fill="#dae4ec" stroke="none" stroke-width="2" stroke-linecap="round" stroke-linejoin="round"/><path d="M142 9 111 26 110 116 152 45Z" fill="#a8bbc9" stroke="none" stroke-width="2" stroke-linecap="round" stroke-linejoin="round"/><path d="M97 26h15l-2 46-15 15Z" fill="#f7f5ec" stroke="none" stroke-width="2" stroke-linecap="round" stroke-linejoin="round"/><path d="M108 117L108 231" fill="none" stroke="#6a8193" stroke-width="2" stroke-linecap="round" stroke-linejoin="round"/><path d="M49 125l24-6 5 9-25 8M139 127l23 8 4-9-24-8" fill="none" stroke="#91a6b6" stroke-width="3" stroke-linecap="round" stroke-linejoin="round"/><circle cx="117" cy="132" r="3" fill="#c4b995"/><circle cx="117" cy="169" r="3" fill="#c4b995"/><circle cx="117" cy="206" r="3" fill="#c4b995"/><path d="M17 87L44 94" fill="none" stroke="#4d697f" stroke-width="2" stroke-linecap="round" stroke-linejoin="round"/><path d="M174 92L193 86" fill="none" stroke="#4d697f" stroke-width="2" stroke-linecap="round" stroke-linejoin="round"/><path d="M50 221L157 221" fill="none" stroke="#4b667d" stroke-width="2" stroke-linecap="round" stroke-linejoin="round"/></g><rect x="1284" y="278" width="187" height="266" rx="8" fill="#fff" stroke="none"/><g transform="translate(1298 347) scale(0.65)"><rect x="10" y="43" width="224" height="126" rx="14" fill="#253a4e" stroke="#172b3c"/><rect x="8" y="34" width="229" height="45" rx="8" fill="url(#metal)" stroke="#8298ad"/><path d="M83 36 99 8h64l17 28Z" fill="#b9c8d5" stroke="#8298ad" stroke-width="2" stroke-linecap="round" stroke-linejoin="round"/><rect x="109" y="15" width="43" height="22" rx="5" fill="#233748" stroke="none"/><rect x="13" y="30" width="35" height="13" rx="4" fill="#182d40" stroke="none"/><rect x="185" y="20" width="32" height="15" rx="5" fill="#3b5065" stroke="none"/><rect x="25" y="81" width="34" height="72" rx="7" fill="#1b2b3b" stroke="none"/><path d="M29 91L29 143" fill="none" stroke="#465d70" stroke-width="2" stroke-linecap="round" stroke-linejoin="round"/><circle cx="142" cy="107" r="66" fill="#142434"/><circle cx="142" cy="107" r="57" fill="url(#metal)"/><circle cx="142" cy="107" r="49" fill="#243d55"/><circle cx="142" cy="107" r="37" fill="url(#lens)"/><circle cx="142" cy="107" r="22" fill="#1c4861"/><circle cx="131" cy="94" r="8" fill="#87bec4"/><circle cx="209" cy="61" r="6" fill="#485c6e"/><rect x="30" y="49" width="29" height="7" rx="2" fill="#e7eef3" stroke="none"/><path d="M221 99L221 148" fill="none" stroke="#586c7d" stroke-width="2" stroke-linecap="round" stroke-linejoin="round"/></g><g transform="translate(1046 513) scale(0.75)"><path d="M0 70 149 10 300 56 150 115Z" fill="#dce9f4" stroke="#91aec6" stroke-width="2" stroke-linecap="round" stroke-linejoin="round"/><path d="M0 70 150 115v153L0 216Z" fill="#33618d" stroke="#2e557d" stroke-width="2" stroke-linecap="round" stroke-linejoin="round"/><path d="M150 115 300 56v153L150 268Z" fill="#20486f" stroke="#2e557d" stroke-width="2" stroke-linecap="round" stroke-linejoin="round"/><path d="M0 70 150 115 300 56v18l-150 59L0 88Z" fill="#cfdeeb" stroke="none" stroke-width="2" stroke-linecap="round" stroke-linejoin="round"/><path d="M80 38 104 29 251 71 225 82Z" fill="#8baec6" stroke="none" stroke-width="2" stroke-linecap="round" stroke-linejoin="round"/><g transform="matrix(1 .3 0 1 20 135)"><text x="0" y="0" font-family="LINE Seed JP, sans-serif" font-size="21" font-weight="700" fill="#f7fafc" text-anchor="start" data-font="logo" letter-spacing="-1.575">MYSTENA</text></g><path d="M18 203L126 236" fill="none" stroke="#91b3ce" stroke-width="2" stroke-linecap="round" stroke-linejoin="round"/><path d="M245 99v72" fill="none" stroke="#6388a8" stroke-width="3" stroke-linecap="round" stroke-linejoin="round"/></g><rect x="961" y="737" width="388" height="43" rx="21" fill="#fff" stroke="none"/><text x="1155" y="766" font-family="LINE Seed JP, sans-serif" font-size="19" font-weight="700" fill="#1262d3" text-anchor="middle" >ミステリーボックスの構想</text><circle cx="142" cy="634" r="62" fill="#fff"/><path d="M127 608v52l41-26Z" fill="#1262d3" stroke="none" stroke-width="2" stroke-linecap="round" stroke-linejoin="round"/><text x="232" y="645" font-family="LINE Seed JP, sans-serif" font-size="28" font-weight="700" fill="#1262d3" text-anchor="start" >サービス紹介・表紙案</text><text x="78" y="824" font-family="LINE Seed JP, sans-serif" font-size="22" font-weight="400" fill="#5b7186" text-anchor="start" >構想図 / 商品と画面はイメージです。動画本編は未制作です。</text></svg>